<svg xmlns="http://www.w3.org/2000/svg" version="1.1" xmlns:xlink="http://www.w3.org/1999/xlink" xmlns:svgjs="http://svgjs.dev/svgjs" width="2000" height="1500" viewBox="0 0 2000 1500"><rect width="2000" height="1500" fill="#ffffff"></rect><g transform="matrix(0.75,0,0,0.75,249.090909090909,282.7536437246963)"><svg viewBox="0 0 396 247" data-background-color="#ffffff" preserveAspectRatio="xMidYMid meet" height="1247" width="2000" xmlns="http://www.w3.org/2000/svg" xmlns:xlink="http://www.w3.org/1999/xlink"><g id="tight-bounds" transform="matrix(1,0,0,1,0.2400000000000091,-0.09999999999999432)"><svg viewBox="0 0 395.52 247.2" height="247.2" width="395.52"><g><svg></svg></g><g><svg viewBox="0 0 395.52 247.2" height="247.2" width="395.52"><g transform="matrix(1,0,0,1,75.54432,91.92653782862955)"><svg viewBox="0 0 244.43135999999998 63.3469243427409" height="63.3469243427409" width="244.43135999999998"><g><svg viewBox="0 0 244.43135999999998 63.3469243427409" height="63.3469243427409" width="244.43135999999998"><g><svg viewBox="0 0 244.43135999999998 63.3469243427409" height="63.3469243427409" width="244.43135999999998"><g><svg viewBox="0 0 244.43135999999998 63.3469243427409" height="63.3469243427409" width="244.43135999999998"><g><svg viewBox="0 0 244.43135999999998 63.3469243427409" height="63.3469243427409" width="244.43135999999998"><g><svg viewBox="0 0 244.43135999999998 63.3469243427409" height="63.3469243427409" width="244.43135999999998"><g transform="matrix(1,0,0,1,0,0)"><svg width="244.43135999999998" viewBox="1.2000000476837158 -39 153.88999938964844 39.88478088378906" height="63.3469243427409" data-palette-color="#010c80"><path d="M20.15-11.5L15.55-11.45 15.55-3.85 21.75-2.75 21.7 0 1.5 0 1.2-1.6Q2.55-2.7 5.05-4L5.05-4 5.05-29.9 1.25-30.55 1.3-33.3 19.65-33.7Q25.8-33.75 29.73-30.53 33.65-27.3 33.65-22.3L33.65-22.3Q33.65-17.6 29.85-14.58 26.05-11.55 20.15-11.5L20.15-11.5ZM20.9-28.85L15.55-28.1 15.55-17.05Q16.9-16.65 18.25-16.65L18.25-16.65Q20.65-16.65 21.88-18.3 23.1-19.95 23.1-22.4L23.1-22.4Q23.1-24.3 22.5-26.2 21.9-28.1 20.9-28.85L20.9-28.85ZM66.65-5.5L66.8-3.25 59.6 0.85Q57.95 0.8 56.4-0.33 54.85-1.45 53.85-3.4L53.85-3.4Q49.9-0.4 46.25 0.85L46.25 0.85Q44.45 1.05 42.22 0.1 40-0.85 38.6-3L38.6-3Q38-3.95 37.95-7.65L37.95-7.65 37.95-19.8 34.2-20.75 34.1-23.2Q38.9-24.9 45.05-25.15L45.05-25.15 48-22.5 48-9.7Q48-5.5 51.55-5.8L51.55-5.8 52.75-6 52.75-20.05 50.2-20.95 50.1-23.4Q54.35-25 59.85-25.15L59.85-25.15 62.8-22.5 62.8-6.95Q62.8-5.4 64-5.4L64-5.4 65.65-5.45 66.65-5.5ZM81-34.15L81-4.4Q83.15-3.5 84.6-2.45L84.6-2.45 84.55 0 67.2 0 67.15-1.75Q68.75-2.75 70.95-3.6L70.95-3.6 70.95-31.45 67.2-32.4 67.1-34.9Q71.85-36.55 78.05-36.85L78.05-36.85 81-34.15ZM108.04-12.6L114.39-3.8Q115.64-2.8 116.69-2.25L116.69-2.25 116.49 0.15 105.79 0.15Q105.14-0.45 103.79-2.45L103.79-2.45 99.54-9.2 99.54 0 85.74 0 85.69-1.75Q87.29-2.75 89.49-3.6L89.49-3.6 89.49-31.45 85.69-32.4 85.59-34.9Q90.34-36.55 96.54-36.85L96.54-36.85 96.59-36.85 99.54-34.15 99.54-13.55 104.34-20.1 101.64-20.75 101.54-23.2Q106.29-24.9 112.59-25.15L112.59-25.15 115.14-21.5 108.04-12.6ZM126.14-27.15L126.14-27.15Q122.09-29 119.49-32.25L119.49-32.25Q121.64-36.4 125.04-39L125.04-39Q128.84-36.85 131.34-33.2L131.34-33.2Q129.44-29.5 126.14-27.15ZM130.64-22.5L130.64-4.4Q132.79-3.5 134.24-2.45L134.24-2.45 134.19 0 116.84 0 116.79-1.75Q118.39-2.75 120.59-3.6L120.59-3.6 120.59-19.8 116.84-20.75 116.74-23.2Q121.54-24.9 127.69-25.15L127.69-25.15 130.64-22.5ZM152.54-17.45L148.64-17.45 148.64-8.2Q148.64-6.25 150.59-6.25L150.59-6.25 154.39-6.45 154.59-3.8 145.74 0.85Q142.99 0.95 140.81-0.78 138.64-2.5 138.59-4.9L138.59-4.9 138.59-17.5 134.69-17.5 134.64-20.3Q136.49-22 139.14-23.8L139.14-23.8 142.14-30.65 146.64-30.65 148.29-23.7 155.09-23.7 155.09-20.85 152.54-17.45Z" opacity="1" transform="matrix(1,0,0,1,0,0)" fill="#010c80" class="undefined-text-0" data-fill-palette-color="primary" id="text-0"></path></svg></g></svg></g></svg></g></svg></g></svg></g></svg></g></svg></g><g><path d="M245.816 0c68.262 0 123.6 55.338 123.6 123.6 0 68.262-55.338 123.6-123.6 123.6-54.579 0-100.895-35.376-117.271-84.449l3.016 0c16.262 47.469 61.273 81.593 114.255 81.593 66.685 0 120.744-54.059 120.743-120.744 0-66.685-54.059-120.744-120.743-120.744-52.982 0-97.993 34.124-114.255 81.593h-3.016c16.376-49.073 62.692-84.449 117.271-84.449z" fill="#010c80" stroke="transparent" data-fill-palette-color="tertiary"></path></g></svg></g><defs></defs></svg><rect width="395.52" height="247.2" fill="none" stroke="none" visibility="hidden"></rect></g></svg></g></svg>